# xmcd CD database file
#
# Track frame offsets:
#	150
#	21477
#	39503
#	64467
#	83622
#	107443
#	126889
#	146114
#	163388
#	180689
#	200373
#
# Disc length: 2840 seconds
#
# Revision: 2
# Processed by: cddbd v1.4b41PL1 Copyright (c) Steve Scherf et al.
# Submitted via: Feurio! 1.52 - http://www.feurio.com
#
DISCID=9e0b160b
DTITLE=Florent Pagny - Savoir Aimer
DYEAR=1900
DGENRE=
TTITLE0=Savoir aimer
TTITLE1=Dors
TTITLE2=Sierra cuadrada
TTITLE3=Mourir les yeux ouverts
TTITLE4=Loin de toi
TTITLE5=Une place pour moi
TTITLE6=Protection
TTITLE7=Combien ca va
TTITLE8=Chanter
TTITLE9=Solo le pido a dios
TTITLE10=D'un amour, l'autre
EXTD=
EXTT0=
EXTT1=
EXTT2=
EXTT3=
EXTT4=
EXTT5=
EXTT6=
EXTT7=
EXTT8=
EXTT9=
EXTT10=
PLAYORDER=
